<svg height="33" viewBox="0 0 87 33" width="87" xmlns="http://www.w3.org/2000/svg"><g fill="#ff000f" fill-rule="evenodd"><path d="m47 33h2c6-.3 10.2-5 10.2-10.6 0-1.9-.4-3.8-1.3-5.3h-10.9z"/><path d="m36 17h10v16h-10z"/><path d="m57.3 16c-1-1.4-2.4-2.5-3.9-3.3 1.8-1.3 3-3.4 3-5.7 0-3.9-3.1-7-7-7h-2.4v16z"/><path d="m36 0h10v16h-10z"/><path d="m74 33h2c6-.3 10.2-5 10.2-10.6 0-1.9-.4-3.8-1.3-5.3h-10.9z"/><path d="m63 17h10v16h-10z"/><path d="m84.3 16c-1-1.4-2.4-2.5-3.9-3.3 1.8-1.3 3-3.4 3-5.7 0-3.9-3.1-7-7-7h-2.4v16z"/><path d="m63 0h10v16h-10z"/><path d="m5.7 17-5.7 16h8.3l2.4-7h5.3v-9z"/><path d="m16 0h-4.3l-5.7 16h10z"/><path d="m17 26h5.3l2.4 7h8.3l-5.7-16h-10.3z"/><path d="m27 16-5.7-16h-4.3v16z"/></g></svg>
